HIERARCHY
ROOT Hips
{
  OFFSET 267.745 86.9975 -272.335
  CHANNELS 6 Xposition Yposition Zposition Zrotation Xrotation Yrotation
  JOINT LeftUpLeg
  {
    OFFSET 8.64259 1.95398 -2.38835
    CHANNELS 3 Zrotation Xrotation Yrotation
    JOINT LeftLeg
    {
      OFFSET 43.7702 0 0
      CHANNELS 3 Zrotation Xrotation Yrotation
      JOINT LeftFoot
      {
        OFFSET 40.6238 0 0
        CHANNELS 3 Zrotation Xrotation Yrotation
        JOINT LeftToeBase
        {
          OFFSET 12.7242 0 0
          CHANNELS 3 Zrotation Xrotation Yrotation
          End Site
          {
            OFFSET 0 0 0
          }
        }
      }
    }
  }
  JOINT RightUpLeg
  {
    OFFSET -8.2249 1.95398 -2.59336
    CHANNELS 3 Zrotation Xrotation Yrotation
    JOINT RightLeg
    {
      OFFSET 43.5653 0 0
      CHANNELS 3 Zrotation Xrotation Yrotation
      JOINT RightFoot
      {
        OFFSET 40.6238 0 0
        CHANNELS 3 Zrotation Xrotation Yrotation
        JOINT RightToeBase
        {
          OFFSET 12.7242 0 0
          CHANNELS 3 Zrotation Xrotation Yrotation
          End Site
          {
            OFFSET 0 0 0
          }
        }
      }
    }
  }
  JOINT Spine
  {
    OFFSET 0.165834 0.87714 6.61349
    CHANNELS 3 Zrotation Xrotation Yrotation
    JOINT Spine1
    {
      OFFSET 7.38963 1.71661e-005 0
      CHANNELS 3 Zrotation Xrotation Yrotation
      JOINT Spine2
      {
        OFFSET 11.9445 1.14441e-005 0
        CHANNELS 3 Zrotation Xrotation Yrotation
        JOINT Spine3
        {
          OFFSET 14.7254 4.19617e-005 0
          CHANNELS 3 Zrotation Xrotation Yrotation
          JOINT Spine4
          {
            OFFSET 10.9679 0 0
            CHANNELS 3 Zrotation Xrotation Yrotation
            JOINT RightShoulder
            {
              OFFSET 2.46616 -1.6653 3.69651
              CHANNELS 3 Zrotation Xrotation Yrotation
              JOINT RightArm
              {
                OFFSET 13.0012 0 0
                CHANNELS 3 Zrotation Xrotation Yrotation
                JOINT RightForeArm
                {
                  OFFSET 28.7848 1.52588e-005 0
                  CHANNELS 3 Zrotation Xrotation Yrotation
                  JOINT RightHand
                  {
                    OFFSET 26.5688 1.52588e-005 0
                    CHANNELS 3 Zrotation Xrotation Yrotation
                    End Site
                    {
                      OFFSET 0 0 0
                    }
                  }
                }
              }
            }
            JOINT LeftShoulder
            {
              OFFSET 2.38034 -1.29275 -3.7523
              CHANNELS 3 Zrotation Xrotation Yrotation
              JOINT LeftArm
              {
                OFFSET 16.3182 6.10352e-005 0
                CHANNELS 3 Zrotation Xrotation Yrotation
                JOINT LeftForeArm
                {
                  OFFSET 27.0901 0 0
                  CHANNELS 3 Zrotation Xrotation Yrotation
                  JOINT LeftHand
                  {
                    OFFSET 24.5451 1.52588e-005 0
                    CHANNELS 3 Zrotation Xrotation Yrotation
                    End Site
                    {
                      OFFSET 0 0 0
                    }
                  }
                }
              }
            }
            JOINT Neck
            {
              OFFSET 5.0226 -0.0266342 0
              CHANNELS 3 Zrotation Xrotation Yrotation
              JOINT Head
              {
                OFFSET 6.69364 2.86102e-005 0
                CHANNELS 3 Zrotation Xrotation Yrotation
                End Site
                {
                  OFFSET 0 0 0
                }
              }
            }
          }
        }
      }
    }
  }
}
MOTION
Frames:	12
Frame Time:	0.0416667
-2.47446 11.1614 -56.3485 174.116 -0.262527 174.316 -173.901 5.57434 89.8181 -10.9386 -14.5275 -0.759003 43.7188 -11.7665 -19.5022 15.4546 0.418057 4.66847 174.428 3.25454 84.6704 -6.82859 13.7023 -0.882695 44.6337 14.2853 32.0568 11.6675 5.07517 -2.86536 -0.615003 7.39422 -90.7485 12.075 -1.57613 -1.32037 0.404431 -1.63272 -1.24972 -22.1297 -1.10651 -1.73296 -2.11698 -1.10651 -1.73297 103.012 15.6411 -74.5548 86.8593 -10.1141 -4.94451 2.97266 -65.9161 0.00374538 -6.59398 -0.641072 6.62646 -74.8251 -8.86562 105.47 -83.1866 -2.73322 -10.2555 7.09157 71.2469 0.0333049 -3.29962 -0.105808 -3.04897 34.6269 7.19954 10.031 -36.2325 3.20527 -3.04605 
-2.44261 11.1609 -56.3437 174.15 -0.20904 174.331 -173.836 5.42729 89.8358 -10.7926 -14.3605 -0.830818 42.9196 -12.0333 -19.3853 17.4419 0.39858 4.09117 174.445 3.18783 84.6764 -6.8238 13.5424 -0.907962 45.0216 14.1578 32.0682 11.4543 5.39577 -3.86532 -0.617294 7.40321 -90.7502 12.0571 -1.58144 -1.32362 0.386467 -1.63815 -1.25274 -22.1476 -1.1106 -1.73765 -2.13498 -1.11059 -1.73766 103.012 15.6264 -74.568 86.8723 -9.91382 -4.78217 2.79434 -65.8978 0.0037427 -6.20477 -0.576255 6.12532 -74.8113 -8.8663 105.509 -83.1858 -2.78751 -10.3063 7.0957 72.4541 0.0355167 -4.25838 -0.105798 -3.15374 34.6495 7.28751 9.94454 -36.3295 3.25132 -2.77746 
-2.42524 11.1397 -56.3523 174.221 -0.234424 174.284 -173.835 5.37523 89.7846 -10.6945 -14.5167 -0.862885 43.0357 -11.9654 -19.3575 17.0258 0.423488 4.12373 174.406 3.25291 84.6142 -6.84997 13.3648 -0.877116 45.0942 14.1028 31.9003 11.1997 5.42314 -3.67785 -0.628804 7.40155 -90.7389 12.0605 -1.59897 -1.29898 0.389928 -1.65459 -1.22736 -22.1445 -1.13472 -1.71943 -2.13188 -1.13472 -1.71943 103.014 15.5412 -74.5927 86.8574 -9.96151 -4.9204 2.82415 -66.2742 0.00379856 -6.16018 -0.587407 6.44528 -74.7904 -8.77387 105.587 -83.1938 -2.58064 -10.1642 6.93445 71.8355 0.0343459 -4.06642 -0.105784 -3.28853 34.9317 7.66144 9.42468 -37.1404 3.67676 -2.23958 
-2.42787 11.1576 -56.348 174.2 -0.168708 174.269 -173.874 5.36647 89.7688 -10.8235 -14.5917 -0.820065 42.9355 -12.0772 -19.4856 17.1555 0.380546 4.27125 174.252 3.19238 84.5248 -6.9057 13.2658 -0.719075 45.239 14.0459 31.958 11.3837 5.44212 -3.9611 -0.630621 7.4106 -90.7386 12.0424 -1.60237 -1.29827 0.371845 -1.65796 -1.2265 -22.1626 -1.13818 -1.71977 -2.14997 -1.13817 -1.71978 103.016 15.5494 -74.574 86.8248 -10.1307 -4.90442 2.84415 -66.0614 0.00376676 -6.10983 -0.571974 6.22907 -74.7853 -8.78808 105.599 -83.2247 -2.62877 -10.1772 6.98746 73.1336 0.0369034 -3.57361 -0.105803 -3.10415 35.1889 7.9075 9.11155 -37.843 3.91839 -1.81224 
-2.41901 11.1769 -56.3424 174.329 -0.381832 174.1 -173.951 5.28538 89.5912 -10.3068 -14.6647 -0.890282 42.5649 -12.082 -19.4934 17.6266 0.284026 4.5476 174.333 3.43688 84.4281 -6.88442 13.1265 -0.847736 44.9715 14.1285 31.8299 12.0703 5.26597 -4.07842 -0.606776 7.38414 -90.7211 12.0958 -1.54692 -1.26847 0.425294 -1.60124 -1.19917 -22.1091 -1.09423 -1.67469 -2.09646 -1.09423 -1.67469 103.008 15.615 -74.608 86.9091 -9.85276 -4.66035 2.826 -66.0944 0.00377165 -6.08873 -0.588439 6.61255 -74.8166 -8.80691 105.505 -83.1746 -2.58341 -10.1883 6.92294 72.6652 0.0359358 -4.44669 -0.105764 -3.46726 35.0761 7.8544 9.1344 -37.7121 3.83119 -1.69938 
-2.45224 11.1451 -56.3556 174.276 -0.218109 174.262 -173.858 5.39845 89.7804 -10.7713 -14.8296 -0.835305 42.8234 -12.0834 -19.6467 17.0437 0.392682 4.25498 174.374 3.24937 84.5777 -6.85964 13.3724 -0.857931 45.0558 14.1351 32.1141 11.1201 5.50208 -3.88567 -0.614492 7.40481 -90.7392 12.054 -1.57062 -1.3027 0.383489 -1.62643 -1.23231 -22.1507 -1.10656 -1.71445 -2.13809 -1.10656 -1.71445 103.012 15.5911 -74.5844 86.9266 -9.74022 -4.79873 2.72737 -66.2881 0.00380066 -6.19217 -0.58294 6.28407 -74.7976 -8.83775 105.554 -83.1803 -2.57043 -10.2623 6.98598 71.501 0.033746 -3.6774 -0.105799 -3.14183 35.1074 7.91698 9.15027 -37.7876 3.90301 -1.76811 
-2.42608 11.1363 -56.3466 174.236 -0.243228 174.278 -173.864 5.41738 89.7806 -10.737 -14.5066 -0.833719 43.0344 -11.9739 -19.4446 17.0185 0.424119 4.12381 174.399 3.27431 84.5994 -6.8563 13.3722 -0.874171 44.934 14.165 32.0193 11.423 5.32108 -3.53973 -0.619158 7.39943 -90.7388 12.0648 -1.5798 -1.30081 0.39425 -1.63552 -1.23003 -22.14 -1.11588 -1.71541 -2.12739 -1.11588 -1.71541 103.008 15.5957 -74.6203 86.8811 -9.96664 -4.83416 2.85934 -66.0799 0.0037695 -6.19735 -0.593768 6.49402 -74.8054 -8.77362 105.544 -83.1689 -2.47331 -10.1967 6.87397 72.0698 0.0347797 -4.10983 -0.105771 -3.40568 35.1044 7.90801 9.11546 -37.8565 3.91421 -1.77506 
-2.42415 11.1446 -56.3452 174.295 -0.291246 174.18 -173.93 5.35625 89.6747 -10.5938 -14.8686 -0.830659 42.8365 -12.034 -19.5354 17.0531 0.46968 3.90541 174.344 3.3383 84.4908 -6.87209 13.2115 -0.850865 45.0826 14.1167 32.0612 11.6255 5.47332 -4.36502 -0.607753 7.39643 -90.7298 12.0712 -1.5529 -1.28564 0.400566 -1.60798 -1.21605 -22.1337 -1.09478 -1.69286 -2.12105 -1.09478 -1.69286 103.01 15.6063 -74.5897 86.8677 -10.0715 -4.76776 2.87779 -66.0579 0.00376624 -6.02666 -0.57994 6.57031 -74.8079 -8.82558 105.527 -83.1909 -2.55451 -10.2083 6.94073 72.9888 0.0365985 -3.82792 -0.1058 -3.13207 35.0869 7.82952 9.16654 -37.7389 3.82531 -1.80869 
-2.43937 11.1752 -56.3633 174.147 -0.188578 174.303 -173.874 5.37238 89.8071 -10.7449 -14.4315 -0.805649 42.5966 -12.1882 -19.6657 17.6921 0.24559 4.70215 174.339 3.16341 84.6002 -6.84551 13.4756 -0.803574 45.1106 14.1376 32.1276 11.216 5.59065 -4.33476 -0.620214 7.41034 -90.7465 12.0429 -1.58542 -1.31595 0.372272 -1.64179 -1.2449 -22.1619 -1.1167 -1.73153 -2.14924 -1.1167 -1.73154 103.017 15.5916 -74.5374 86.9009 -9.76869 -4.90025 2.66436 -66.0785 0.00376929 -5.90131 -0.531641 5.80647 -74.796 -8.84343 105.558 -83.1871 -2.52304 -10.2798 6.9854 72.1426 0.0349168 -3.11755 -0.105821 -2.91459 35.1751 7.8385 9.18459 -37.8774 3.83257 -1.85208 
-2.43937 11.1663 -56.3638 174.187 -0.214644 174.292 -173.886 5.35258 89.7914 -10.6453 -14.4943 -0.793991 42.7205 -12.0843 -19.7107 17.4487 0.272198 4.66556 174.33 3.20584 84.5864 -6.86825 13.5925 -0.812013 45.0909 14.1285 32.1326 11.3904 5.49554 -4.1736 -0.624706 7.40492 -90.7424 12.0537 -1.59245 -1.30671 0.383186 -1.64841 -1.23537 -22.1512 -1.12618 -1.72484 -2.13852 -1.12617 -1.72484 103.011 15.5927 -74.5955 86.8486 -10.0148 -4.91176 2.84988 -65.758 0.00372242 -6.58336 -0.615526 6.16812 -74.7879 -8.83562 105.582 -83.1687 -2.35879 -10.272 6.85737 72.251 0.0351231 -4.00733 -0.105779 -3.32717 35.1378 7.85742 9.12412 -37.7885 3.84983 -1.75106 
-2.4369 11.1865 -56.3583 174.192 -0.254072 174.185 -173.922 5.33506 89.6937 -10.6067 -14.7097 -0.833337 42.8982 -12.0144 -19.4966 16.9038 0.474392 3.93616 174.379 3.24798 84.5178 -6.82024 13.363 -0.898183 45.0566 14.1532 32.0349 11.1598 5.45904 -3.77259 -0.635779 7.40156 -90.7296 12.0607 -1.60845 -1.27929 0.390171 -1.66319 -1.20727 -22.1446 -1.14967 -1.7035 -2.1319 -1.14966 -1.70351 103.012 15.5741 -74.5958 86.8568 -10.0016 -4.90928 2.77423 -66.0831 0.00376998 -6.02129 -0.561926 6.19919 -74.7809 -8.80947 105.608 -83.2073 -2.54127 -10.227 6.91707 72.4956 0.0355983 -4.19741 -0.10578 -3.31947 35.1645 7.90572 9.11818 -37.832 3.90896 -1.79035 
-2.45168 11.1697 -56.3639 174.143 -0.199631 174.345 -173.823 5.37998 89.8752 -10.732 -14.5906 -0.820818 42.8053 -12.0516 -19.6308 17.2148 0.397759 4.17287 174.369 3.17222 84.6576 -6.83307 13.2576 -0.79056 45.1334 14.115 31.6952 11.3264 5.37109 -3.62394 -0.631425 7.40794 -90.7492 12.0475 -1.60897 -1.31859 0.376928 -1.66545 -1.2465 -22.1574 -1.13836 -1.74113 -2.14475 -1.13836 -1.74114 103.012 15.6097 -74.5738 86.8517 -10.0334 -4.98179 2.79644 -65.6826 0.00371157 -6.4281 -0.584461 5.85465 -74.7839 -8.83596 105.594 -83.2025 -2.51475 -10.222 6.94098 72.2926 0.035203 -4.04101 -0.105775 -3.37173 35.1462 7.9009 9.12621 -37.8513 3.91834 -1.84102 
